<?xml version="1.0" encoding="utf-8"?>
<!-- Generator: Adobe Illustrator 16.0.2, SVG Export Plug-In . SVG Version: 6.00 Build 0)  -->
<!DOCTYPE svg PUBLIC "-//W3C//DTD SVG 1.1//EN" "http://www.w3.org/Graphics/SVG/1.1/DTD/svg11.dtd">
<svg version="1.1" id="Layer_1" xmlns="http://www.w3.org/2000/svg" xmlns:xlink="http://www.w3.org/1999/xlink" x="0px" y="0px"
	 width="74px" height="74px" viewBox="0 0 75 75" enable-background="new 0 0 75 75" xml:space="preserve">
<path fill="#424142" d="M37,0C16.565,0,0,16.565,0,37c0,20.436,16.565,37,37,37c20.434,0,37-16.564,37-37C74,16.565,57.434,0,37,0z
	 M37,64.408C21.864,64.408,9.592,52.136,9.592,37C9.592,21.863,21.864,9.593,37,9.593c15.136,0,27.406,12.271,27.406,27.407
	C64.407,52.136,52.136,64.408,37,64.408z"/>
<path fill="#424142" d="M26.359,22.5c-1.03,0-1.999,0.401-2.728,1.129c-1.505,1.505-1.505,3.953-0.001,5.457l7.89,7.89l-7.879,7.88
	c-1.517,1.518-1.517,3.986,0,5.505c0.735,0.735,1.713,1.14,2.753,1.14c1.039,0,2.017-0.404,2.753-1.139l7.878-7.88l7.889,7.889
	c0.729,0.729,1.696,1.13,2.728,1.13c1.03,0,1.999-0.401,2.728-1.13c1.503-1.505,1.503-3.951,0-5.456l-7.889-7.889l7.878-7.879
	c0.735-0.735,1.141-1.713,1.141-2.752c0-1.04-0.405-2.018-1.141-2.753c-0.734-0.735-1.712-1.14-2.752-1.14
	c-1.039,0-2.017,0.405-2.752,1.14l-7.879,7.879l-7.889-7.89C28.358,22.901,27.389,22.5,26.359,22.5L26.359,22.5z"/>
</svg>
