<?xml version="1.0" encoding="utf-8"?>
<!-- Generator: Adobe Illustrator 19.2.1, SVG Export Plug-In . SVG Version: 6.00 Build 0)  -->
<svg version="1.0" id="Layer_1" xmlns="http://www.w3.org/2000/svg" xmlns:xlink="http://www.w3.org/1999/xlink" x="0px" y="0px"
	 viewBox="0 0 128 128" height="128" width="128" style="enable-background:new 0 0 128 128;" xml:space="preserve">
<style type="text/css">
	.st0{fill:#CE2027;}
</style>
<g>
	<path class="st0" d="M101,9.5c1.4-4.2,5.9-7.8,10.2-8.1c4.3-0.3,6.6,2.9,5.3,7.1c-3.1,9.8-17.8,29.4-35,49.8
		c-2.7,3.2-5.4,6.4-8.2,9.6c13.3,13,28.1,24.7,44.9,37.1c2.8,2.1,2.5,7-0.7,10.9s-8,5.5-10.8,3.5c-17-12.6-32.2-24.5-45.6-37.7
		c-18,20-35.2,37.6-41.4,42.4c-4,3.1-8.9,3.4-10.9,0.6c-2-2.8-0.4-7.6,3.6-10.8c5.6-4.4,22.3-21.6,39.9-41.4
		C38,57.1,25.7,39.3,15,16.4C13.5,13.2,15.4,8,19.3,5c3.9-3,8.4-2.8,9.9,0.4C39.3,27.1,51,44,64.4,58.7c2-2.3,3.9-4.6,5.8-6.8
		C85.7,33.5,98.8,16.4,101,9.5L101,9.5z"/>
</g>
</svg>
