<?xml version="1.0" encoding="utf-8"?>
<!-- Generator: Adobe Illustrator 19.2.1, SVG Export Plug-In . SVG Version: 6.00 Build 0)  -->
<svg version="1.0" id="Layer_1" xmlns="http://www.w3.org/2000/svg" xmlns:xlink="http://www.w3.org/1999/xlink" x="0px" y="0px"
	 viewBox="0 0 128 128" height="128" width="128" style="enable-background:new 0 0 128 128;" xml:space="preserve">
<style type="text/css">
	.st0{fill:#0E9A48;}
</style>
<path class="st0" d="M44.8,14.7c3.6-0.9,6.2,1.1,5.8,4.4c-0.4,3.3-3.7,6.7-7.3,7.6c-12.3,3-19.7,10.1-22.7,18.6
	c-1.9,5.3-2.3,11.3-1.3,17.3c1.1,6.3,3.7,12.5,7.7,18.1c8.9,12.4,24.9,21.5,46.7,21c15.6-0.4,27-9.7,32.1-21.5
	c2.2-5,3.3-10.4,3.3-15.9c0-5.6-1.3-11.2-3.9-16.3c-6.5-12.8-21.6-22.6-47.4-22.6c-3.4,0-5.1-2.8-3.7-6.2c1.3-3.4,5.2-6.2,8.6-6.2
	c29.8,0,47.2,11.6,55,26.6c3.2,6.3,4.7,13.2,4.8,20.1c0,7.1-1.5,14.3-4.5,21C110,99,92.7,113.5,69.3,114.1
	c-25.3,0.6-43.7-9.9-54-24.1c-4.7-6.5-7.8-13.9-9-21.3C4.9,61,5.5,53.1,8.1,45.7C13.2,31.4,25.2,19.5,44.8,14.7L44.8,14.7z"/>
</svg>
