<?xml version="1.0" encoding="UTF-8" standalone="no"?>
<svg width="17px" height="14px" viewBox="0 0 17 14" version="1.1" xmlns="http://www.w3.org/2000/svg" xmlns:xlink="http://www.w3.org/1999/xlink">
    <!-- Generator: Sketch 3.6 (26304) - http://www.bohemiancoding.com/sketch -->
    <title>tw-icon</title>
    <desc>Created with Sketch.</desc>
    <defs></defs>
    <g id="Page-1" stroke="none" stroke-width="1" fill="none" fill-rule="evenodd">
        <path d="M16.1,2.2 C15.5,2.5 14.9,2.6 14.2,2.7 C14.9,2.3 15.4,1.7 15.6,0.9 C15,1.3 14.3,1.5 13.5,1.7 C12.9,1.1 12.1,0.7 11.1,0.7 C9.3,0.7 7.9,2.2 7.9,3.9 C7.9,4.2 7.9,4.4 8,4.6 C5.4,4.5 3,3.2 1.4,1.2 C1.1,1.7 1,2.3 1,2.9 C1,4 1.6,5 2.4,5.6 C1.9,5.6 1.4,5.4 0.9,5.2 L0.9,5.2 C0.9,6.8 2,8.1 3.5,8.4 C3.2,8.5 2.9,8.5 2.6,8.5 C2.4,8.5 2.2,8.5 2,8.4 C2.4,9.7 3.6,10.6 5,10.6 C3.9,11.5 2.5,12 1,12 L0.2,12 C1.6,12.9 3.3,13.5 5.2,13.5 C11.2,13.5 14.4,8.6 14.4,4.3 L14.4,3.9 C15.2,3.4 15.7,2.8 16.1,2.2 L16.1,2.2 Z" id="Shape" fill="#ffffff"></path>
    </g>
</svg>