<?xml version="1.0" encoding="UTF-8" standalone="no"?>
<svg width="20px" height="12px" viewBox="0 0 20 12" version="1.1" xmlns="http://www.w3.org/2000/svg" xmlns:xlink="http://www.w3.org/1999/xlink">
    <!-- Generator: Sketch 3.6 (26304) - http://www.bohemiancoding.com/sketch -->
    <title>vk-icon</title>
    <desc>Created with Sketch.</desc>
    <defs></defs>
    <g id="Page-1" stroke="none" stroke-width="1" fill="none" fill-rule="evenodd">
        <path d="M19.6,1.3 C19.6,1.3 19.5,0.9 18.6,1 L15.7,1 C15.5,1 15.3,1.1 15.3,1.1 C15.3,1.1 15.1,1.2 15,1.4 C14.6,2.6 14,3.7 14,3.7 C12.7,5.9 12.2,6 12,5.9 C11.5,5.6 11.6,4.6 11.6,4 C11.6,1.9 11.9,1 11,0.8 C10.7,0.7 10.5,0.7 9.6,0.7 C8.6,0.7 7.7,0.7 7.2,0.9 C6.9,0.9 6.7,1.3 6.8,1.3 C7,1.3 7.4,1.4 7.7,1.7 C7.7,1.7 8,2.1 8,3 C8.1,5.5 7.6,5.8 7.6,5.8 C7.2,6 6.5,5.7 5.5,3.6 C5.5,3.6 4.9,2.6 4.5,1.5 C4.4,1.3 4.2,1.2 4.2,1.2 C4.2,1.2 4,1 3.8,1 L1,1 C0.6,1 0.4,1.2 0.4,1.2 C0.4,1.2 0.2,1.4 0.4,1.7 C2.6,6.7 5,9.3 5,9.3 C5,9.3 7.2,11.6 9.8,11.5 L9.8,11.5 L11,11.5 C11.4,11.5 11.5,11.3 11.5,11.3 C11.5,11.3 11.7,11.1 11.7,10.8 C11.7,9.3 12.4,9 12.4,9 C13.1,8.8 14,10.5 15,11.2 C15,11.2 15.7,11.7 16.3,11.6 L18.9,11.6 C20.3,11.6 19.6,10.5 19.6,10.5 C19.5,10.4 19.2,9.7 17.7,8.3 C16.1,6.8 16.3,7 18.3,4.5 C19.3,2.7 19.8,1.7 19.6,1.3 L19.6,1.3 Z" id="Shape" fill="#ffffff"></path>
    </g>
</svg>